<?xml version="1.0" encoding="utf-8"?>
<!-- Generator: Adobe Illustrator 23.0.0, SVG Export Plug-In . SVG Version: 6.00 Build 0)  -->
<svg version="1.1" id="Layer_1" xmlns="http://www.w3.org/2000/svg" xmlns:xlink="http://www.w3.org/1999/xlink" x="0px" y="0px"
	 viewBox="0 0 832 832" style="enable-background:new 0 0 832 832;" xml:space="preserve">
<style type="text/css">
	.st0{fill:url(#SVGID_1_);}
	.st1{fill:url(#SVGID_2_);}
	.st2{fill:url(#SVGID_3_);}
	.st3{fill:url(#SVGID_4_);}
	.st4{fill:url(#SVGID_5_);}
	.st5{fill:url(#SVGID_6_);}
	.st6{fill:url(#SVGID_7_);}
	.st7{fill:url(#SVGID_8_);}
	.st8{fill:url(#SVGID_9_);}
	.st9{fill:url(#SVGID_10_);}
	.st10{fill:url(#SVGID_11_);}
	.st11{fill:url(#SVGID_12_);}
	.st12{fill:url(#SVGID_13_);}
	.st13{fill:url(#SVGID_14_);}
	.st14{fill:url(#SVGID_15_);}
	.st15{fill:url(#SVGID_16_);}
	.st16{fill:url(#SVGID_17_);}
	.st17{fill:url(#SVGID_18_);}
	.st18{fill:url(#SVGID_19_);}
	.st19{fill:url(#SVGID_20_);}
	.st20{fill:url(#SVGID_21_);}
	.st21{fill:url(#SVGID_22_);}
	.st22{fill:url(#SVGID_23_);}
	.st23{fill:url(#SVGID_24_);}
	.st24{fill:url(#SVGID_25_);}
	.st25{fill:url(#SVGID_26_);}
	.st26{fill:url(#SVGID_27_);}
	.st27{fill:url(#SVGID_28_);}
	.st28{fill:url(#SVGID_29_);}
	.st29{fill:url(#SVGID_30_);}
	.st30{fill:url(#SVGID_31_);}
	.st31{fill:url(#SVGID_32_);}
	.st32{fill:url(#SVGID_33_);}
	.st33{fill:url(#SVGID_34_);}
	.st34{fill:url(#SVGID_35_);}
	.st35{fill:url(#SVGID_36_);}
	.st36{fill:url(#SVGID_37_);}
</style>
<linearGradient id="SVGID_1_" gradientUnits="userSpaceOnUse" x1="832" y1="831.1084" x2="0.8916" y2="2.798481e-08">
	<stop  offset="0" style="stop-color:#1A1A1A"/>
	<stop  offset="1" style="stop-color:#2D2D2D"/>
</linearGradient>
<rect x="0.9" class="st0" width="831.1" height="831.1"/>
<g>
	<g>
		<g>
			<linearGradient id="SVGID_2_" gradientUnits="userSpaceOnUse" x1="684.3218" y1="685.5128" x2="149.5386" y2="150.7297">
				<stop  offset="5.586592e-03" style="stop-color:#00A8FF"/>
				<stop  offset="1" style="stop-color:#00FFB3"/>
			</linearGradient>
			<path class="st1" d="M404.2,40.2c78.2-2.8,157.1,19.4,222.2,63c46.3,30.8,85.6,71.9,114.3,119.5c36.3,59.8,55.4,129.9,54.1,199.9
				c-0.2,108.8-51.4,215.9-135.1,285.3c-44.6,37.5-98,64.4-154.7,77.9c-49.6,11.8-101.6,13.5-151.8,5
				c-60.9-10.2-119.1-35.8-167.8-73.7c-38-29.5-70.4-66.2-94.7-107.7C59.3,556,41.4,494.9,39.2,433c-2.8-65.5,11.9-131.6,42.3-189.6
				c27.4-52.6,67.3-98.5,115.6-133C257.2,67.2,330.3,42.4,404.2,40.2z M391.3,59.7c-78.6,5.2-155.1,37.7-213.6,90.4
				c-43.5,38.7-77.3,88.1-97.5,142.6c-28.8,77-30,164-3.2,241.7c17.6,51.9,47.6,99.5,86.4,138.2c41.7,41.7,93.8,72.9,150.3,89.7
				c97.1,29.5,206.5,15.3,292.4-38.7c49.8-30.8,91.8-74,121.3-124.6c32.4-55.4,49.6-119.6,48.7-183.7c0.1-101.2-46-201-122.4-267.2
				C582.8,84.9,485.9,52.5,391.3,59.7z"/>
		</g>
		<linearGradient id="SVGID_3_" gradientUnits="userSpaceOnUse" x1="606.0272" y1="607.6376" x2="227.7498" y2="229.3601">
			<stop  offset="5.586592e-03" style="stop-color:#00A8FF"/>
			<stop  offset="1" style="stop-color:#00FFB3"/>
		</linearGradient>
		<path class="st2" d="M362.4,156.5c34.4-6.9,70-7.2,104.5-0.8c54.8,10.5,106.3,38.3,144.3,79.3c46,47.9,72.1,114,72.8,180.3
			c1.9,76.3-31.9,152.4-89,202.9c-35.9,33-81.6,54.5-129.4,63.5c-9.8,1.8-19.7,3.5-29.7,3.5c0.1-102.4,0.3-204.8,0.2-307.3
			c40.5,0,81-0.1,121.5,0.1c8.3,26.5,8.1,55.7,0.1,82.2c-13.2,0-26.3,0-39.5,0c-0.1,37.5-0.1,74.9,0,112.4c3.6-1.3,6.5-3.8,9.5-6
			c33-24.6,57.5-60.4,67.9-100.3c9.5-35.6,7.7-74-4.3-108.8c-13.5-37.8-39.6-71.1-73.4-92.9c-26.3-17.5-57.4-27.5-88.9-29.6
			c-52.5-3.5-106,16.6-143,54c-51.6,50.5-68.2,132.9-40,199.4c14,34.1,38.2,64.2,69.5,84c0.2-37.4,0-74.7,0.1-112.1
			c-13.1-0.1-26.3,0-39.5,0c-8-26.4-7.7-55.4-0.2-82c40.7-0.5,81.3-0.3,122-0.2c0,102.4,0,204.9,0,307.3
			c-58.7-3.6-115.6-28.2-159.2-67.5c-46.1-41.1-77.3-98.7-86-159.9c-3.7-28.5-4.1-57.7,1.2-86c9.6-53.8,35.6-104.8,74.8-143.1
			C264.8,192.1,312.1,167.1,362.4,156.5z"/>
	</g>
	<g>
		<linearGradient id="SVGID_4_" gradientUnits="userSpaceOnUse" x1="436.8676" y1="109.4736" x2="406.4591" y2="79.0651">
			<stop  offset="0" style="stop-color:#FF6B00"/>
			<stop  offset="0.6588" style="stop-color:#FFA100"/>
			<stop  offset="1" style="stop-color:#FFB800"/>
		</linearGradient>
		<path class="st3" d="M403.6,81.9c3.1,0,6.1,0,9.2,0.1c3,5.2,6,10.4,9.1,15.5c3.7-4.9,6.7-10.2,10.1-15.2c2.8,0,5.6,0,8.4,0.1
			c-4.6,7.8-9.9,15-14.6,22.7c-0.9,5.6,1,11.5-1.3,16.8c-1.9-1.8-4.7-1.3-7.1-1.5c0.3-5.2,0.5-10.4,0.1-15.6
			C412.9,97.1,408.1,89.6,403.6,81.9z"/>
		<g>
			<linearGradient id="SVGID_5_" gradientUnits="userSpaceOnUse" x1="378.7104" y1="120.9762" x2="347.0142" y2="89.2799">
				<stop  offset="0" style="stop-color:#FF6B00"/>
				<stop  offset="0.6588" style="stop-color:#FFA100"/>
				<stop  offset="1" style="stop-color:#FFB800"/>
			</linearGradient>
			<path class="st4" d="M347.6,88.7c10-0.7,21.1-5.7,30.2,0.8c9.8,6.3,11.3,22.5,2.2,30.1c-7.5,6.1-17.6,5.6-26.6,7.2
				C351.5,114.1,349.1,101.4,347.6,88.7z M356.6,94.8c0.8,7.9,2.4,15.7,3.5,23.6c5.3-0.8,11.5-1,15.5-5.2c5.1-5.7,2.5-16.1-4.7-18.7
				C366.2,92.5,361.3,94.3,356.6,94.8z"/>
		</g>
		<g>
			<linearGradient id="SVGID_6_" gradientUnits="userSpaceOnUse" x1="491.8917" y1="121.6177" x2="462.9381" y2="92.6641">
				<stop  offset="0" style="stop-color:#FF6B00"/>
				<stop  offset="0.6588" style="stop-color:#FFA100"/>
				<stop  offset="1" style="stop-color:#FFB800"/>
			</linearGradient>
			<path class="st5" d="M471.8,87.6c7.8-1.9,16.7,0.8,21.8,7c7.4,9.1,4.4,24.5-5.8,30.1c-9.8,5.5-24.5,1.5-29-9.1
				C454,104.9,459.9,90.2,471.8,87.6z M473.6,95c-7.2,2.1-10.3,11.3-7.4,17.8c3,6.8,12.8,8.9,18.7,4.5c4.9-4,6.3-11.7,3.1-17.1
				C485,95.7,478.9,93.4,473.6,95z"/>
		</g>
		<linearGradient id="SVGID_7_" gradientUnits="userSpaceOnUse" x1="330.796" y1="134.8994" x2="297.7957" y2="101.8992">
			<stop  offset="0" style="stop-color:#FF6B00"/>
			<stop  offset="0.6588" style="stop-color:#FFA100"/>
			<stop  offset="1" style="stop-color:#FFB800"/>
		</linearGradient>
		<path class="st6" d="M295.2,104.5c8.7-2.9,17.2-6.1,26-8.8c0.7,2.3,1.4,4.7,2.1,7c-6.1,1.9-11.9,4.2-18,6c0.4,2.6,1.2,5.1,2,7.5
			c4.7-1.5,9.4-3.2,14.1-4.8c0.8,2.3,1.6,4.7,2.5,7c-4.6,1.5-9.2,3.1-13.9,4.7c0.9,2.8,1.8,5.5,2.8,8.2c6.3-2.1,12.5-4.4,18.8-6.3
			c0.7,2.3,1.5,4.6,2.3,6.9c-8.8,3-17.4,6.4-26.4,8.8C303.5,128.7,298.7,116.8,295.2,104.5z"/>
		<linearGradient id="SVGID_8_" gradientUnits="userSpaceOnUse" x1="541.5116" y1="128.6533" x2="516.0789" y2="103.2205">
			<stop  offset="0" style="stop-color:#FF6B00"/>
			<stop  offset="0.6588" style="stop-color:#FFA100"/>
			<stop  offset="1" style="stop-color:#FFB800"/>
		</linearGradient>
		<path class="st7" d="M521.2,98.1c2.8,1,5.6,2,8.4,3.1c1.3,6,2,12.2,3.5,18.2c4.6-4,9.7-7.3,14.4-11.1c2.7,0.9,5.4,1.9,8.1,3
			c-7,5.6-14.7,10.4-21.6,16.2c-2.3,4.6-3.8,9.5-5.7,14.2c-2.7-0.5-5.2-1.5-7.6-2.6c1.6-5.1,4.2-9.8,5.4-15
			C524.6,115.5,522.7,106.9,521.2,98.1z"/>
		<g>
			<linearGradient id="SVGID_9_" gradientUnits="userSpaceOnUse" x1="281.783" y1="156.3037" x2="249.7113" y2="124.232">
				<stop  offset="0" style="stop-color:#FF6B00"/>
				<stop  offset="0.6588" style="stop-color:#FFA100"/>
				<stop  offset="1" style="stop-color:#FFB800"/>
			</linearGradient>
			<path class="st8" d="M245,128.9c7.4-3.4,14.4-9.9,23.1-8.8c8.5,1.5,13.1,13.2,6.9,19.7c4.9,2.8,9.8,5.7,14.6,8.6
				c-2.6,1.8-5.4,3.3-8.3,4.6c-4.3-2.8-8.6-5.4-12.9-8.1c-1.5,0.8-3,1.6-4.5,2.4c1.8,4.1,4.7,7.7,6,12.1c-2.2,1.2-4.5,2.4-6.8,3.5
				C257.3,151.5,250.8,140.4,245,128.9z M255.5,131.6c1.6,3.4,3.5,6.7,5.3,10c3.5-2.2,9-3.4,9.6-8.2c-0.5-2.8-2.5-6.1-5.8-5.9
				C261.2,127.9,258.4,130.2,255.5,131.6z"/>
		</g>
		<g>
			<linearGradient id="SVGID_10_" gradientUnits="userSpaceOnUse" x1="596.0071" y1="161.8831" x2="567.2344" y2="133.1105">
				<stop  offset="0" style="stop-color:#FF6B00"/>
				<stop  offset="0.6588" style="stop-color:#FFA100"/>
				<stop  offset="1" style="stop-color:#FFB800"/>
			</linearGradient>
			<path class="st9" d="M577.2,127.5c10-2,20.8,4.4,24,14.1c3.3,10.3-3.3,22.5-13.7,25.5c-10.2,3-22-3.3-25.4-13.3
				C558.5,142.9,565.9,129.7,577.2,127.5z M577.2,135.7c-5,2.3-8.4,7.9-8,13.4c0.7,7.2,8.8,12.6,15.7,10.5c5.4-1.5,9-7,9.4-12.4
				C594.5,139,584.7,132.3,577.2,135.7z"/>
		</g>
		<g>
			<linearGradient id="SVGID_11_" gradientUnits="userSpaceOnUse" x1="233.3283" y1="186.5681" x2="204.4521" y2="157.6919">
				<stop  offset="0" style="stop-color:#FF6B00"/>
				<stop  offset="0.6588" style="stop-color:#FFA100"/>
				<stop  offset="1" style="stop-color:#FFB800"/>
			</linearGradient>
			<path class="st10" d="M204.5,157.6c2.2-1.7,4.4-3.5,6.6-5.3c12.2,6.5,24,13.7,36.1,20.4c-1.9,2-4.1,3.8-6.3,5.3
				c-2.7-0.7-4.7-3.5-7.5-3.6c-4.1,3.3-8.4,6.5-12.4,9.9c-0.4,2.8,1.6,5.3,1.9,8.1c-2,1.9-4.1,3.7-6.6,4.7
				C212.4,183.9,208.1,170.9,204.5,157.6z M213.6,162.2c1.3,5,2.9,9.9,4.4,14.8c3.1-2.1,6-4.4,8.9-6.8
				C222.6,167.2,218.1,164.8,213.6,162.2z"/>
		</g>
		<linearGradient id="SVGID_12_" gradientUnits="userSpaceOnUse" x1="638.4237" y1="192.4371" x2="616.6935" y2="170.707">
			<stop  offset="0" style="stop-color:#FF6B00"/>
			<stop  offset="0.6588" style="stop-color:#FFA100"/>
			<stop  offset="1" style="stop-color:#FFB800"/>
		</linearGradient>
		<path class="st11" d="M619.5,173.1c-0.8-7.4,7.5-14.1,14.5-11c8.1,3,16.3,13.2,10.7,21.8c-2.1-1.2-4.1-2.4-6.3-3.4
			c3-6.1-7.4-16-10.9-8.2c0.3,6.3,7.6,10.1,8.3,16.5c1.5,7.5-6.9,15-14.2,12.3c-8.8-3.2-17.5-13.6-12.2-23.1
			c2.3,1.1,4.6,2.1,6.8,3.2c-2.4,5.3,1.8,10.8,6.8,12.6c3.1,0.8,6.3-2.8,4.6-5.7C625,183.1,620,179.1,619.5,173.1z"/>
		<linearGradient id="SVGID_13_" gradientUnits="userSpaceOnUse" x1="193.583" y1="222.7515" x2="165.1018" y2="194.2703">
			<stop  offset="0" style="stop-color:#FF6B00"/>
			<stop  offset="0.6588" style="stop-color:#FFA100"/>
			<stop  offset="1" style="stop-color:#FFB800"/>
		</linearGradient>
		<path class="st12" d="M176.1,183.3c7.3,7,16.4,12.6,21.8,21.3c6.2,12.5-9.8,28.3-22.2,21.1c-7.9-5-14.4-11.9-21.3-18.2
			c1.8-2,3.6-3.9,5.5-5.7c6.2,5.6,12.2,11.4,18.9,16.4c6.8,5.3,16.7-5.4,10.9-11.7c-5.7-6.1-12.3-11.4-18.6-16.8
			C172.1,187,174.3,185.2,176.1,183.3z"/>
		<linearGradient id="SVGID_14_" gradientUnits="userSpaceOnUse" x1="647.123" y1="223.9078" x2="640.9733" y2="217.7581">
			<stop  offset="0" style="stop-color:#FF6B00"/>
			<stop  offset="0.6588" style="stop-color:#FFA100"/>
			<stop  offset="1" style="stop-color:#FFB800"/>
		</linearGradient>
		<path class="st13" d="M641.8,217c2.8-1.4,6,0.9,6.5,3.7c0.4,3.1-3.8,5.7-6.3,3.6C639.5,222.8,639.3,218.7,641.8,217z"/>
		<linearGradient id="SVGID_15_" gradientUnits="userSpaceOnUse" x1="696.9642" y1="260.2285" x2="669.0594" y2="232.3237">
			<stop  offset="0" style="stop-color:#FF6B00"/>
			<stop  offset="0.6588" style="stop-color:#FFA100"/>
			<stop  offset="1" style="stop-color:#FFB800"/>
		</linearGradient>
		<path class="st14" d="M663,247.1c-0.9-11.7,10.5-21.7,21.9-20.8c13.9,0.6,23.9,18.6,15.7,30.3c-2.1-1.6-4.1-3.4-6-5.2
			c3.5-7.2-1.7-16.6-9.6-17.4c-7,0-14.6,5.6-14.4,13.1c0.2,6.8,6.8,12.4,13.6,11.7c0.8,2.5,1.6,4.9,2.4,7.4
			C674.9,269,663.3,258.8,663,247.1z"/>
		<g>
			<linearGradient id="SVGID_16_" gradientUnits="userSpaceOnUse" x1="163.6814" y1="275.6157" x2="130.2043" y2="242.1385">
				<stop  offset="0" style="stop-color:#FF6B00"/>
				<stop  offset="0.6588" style="stop-color:#FFA100"/>
				<stop  offset="1" style="stop-color:#FFB800"/>
			</linearGradient>
			<path class="st15" d="M127.1,267.1c-8.1-12.1,1.7-31.1,16.4-31.1c12.5-0.9,24.6,11.8,20.8,24.4c-1.8,3.7,3.1,4.6,5.4,6.2
				c-1.3,2.3-2.6,4.7-4,7c-2-1.3-4.1-2.5-6.3-3.4C150.9,280.3,133.8,278.1,127.1,267.1z M139.2,244.8c-6,2.8-9.4,11.1-5.9,17
				c3.2,5.9,11.5,9.1,17.5,5.4c5.6-3.2,8.4-11.1,4.9-16.8C152.4,245.3,145.1,242,139.2,244.8z"/>
		</g>
		<g>
			<linearGradient id="SVGID_17_" gradientUnits="userSpaceOnUse" x1="725.1339" y1="313.9898" x2="696.2983" y2="285.1542">
				<stop  offset="0" style="stop-color:#FF6B00"/>
				<stop  offset="0.6588" style="stop-color:#FFA100"/>
				<stop  offset="1" style="stop-color:#FFB800"/>
			</linearGradient>
			<path class="st16" d="M705.6,280c12.9-4.6,26.1,7.8,25.3,20.7c0.3,13.9-16.4,23.3-28.5,17.6c-10.1-4.6-14.7-17.8-10.1-27.8
				C694.9,285.2,700,281.5,705.6,280z M706.5,288c-8.1,2.5-11,13.3-5.4,19.6c6.1,8.3,20.8,3.6,22.2-6.1
				C724.8,292.6,715.1,283.9,706.5,288z"/>
		</g>
		<linearGradient id="SVGID_18_" gradientUnits="userSpaceOnUse" x1="134.5451" y1="321.2976" x2="106.1622" y2="292.9147">
			<stop  offset="0" style="stop-color:#FF6B00"/>
			<stop  offset="0.6588" style="stop-color:#FFA100"/>
			<stop  offset="1" style="stop-color:#FFB800"/>
		</linearGradient>
		<path class="st17" d="M99.9,309c-0.6-9,5.6-20.2,15.8-19.2c0.2,2.5-0.1,5-0.4,7.4c-4.9,0.3-8.5,5.2-8.1,10
			c0.2,3.3,4.9,4.3,6.8,1.8c3.6-3.9,5.3-9.3,9.8-12.3c6.4-4.1,16.6,0.7,16.8,8.5c0.3,9.4-6.1,21.5-17.1,20.1
			c0.1-2.6,0.3-5.1,0.5-7.7c5.8,0.4,10-6,9-11.3c-0.6-2.9-4.9-3.9-6.8-1.6c-3.6,4-5.4,9.8-10.4,12.6
			C109.6,320.9,100.2,316.4,99.9,309z"/>
		<linearGradient id="SVGID_19_" gradientUnits="userSpaceOnUse" x1="746.8796" y1="377.9893" x2="709.4581" y2="340.5677">
			<stop  offset="0" style="stop-color:#FF6B00"/>
			<stop  offset="0.6588" style="stop-color:#FFA100"/>
			<stop  offset="1" style="stop-color:#FFB800"/>
		</linearGradient>
		<path class="st18" d="M705.8,344.2c12.6-2.3,25.2-4.5,37.7-7.1c0.6,2.7,1.1,5.4,1.7,8.1c-5.3,5.1-11.5,9.1-16.7,14.4
			c6.9,2.3,13.8,4.5,20.6,6.9c0.6,2.6,1,5.3,1.2,7.9c-12.6,2.2-25.2,4.8-37.8,7c-0.2-2.6-1.4-5.2-1-7.7c7.9-1.9,16.1-2.9,24.1-4.7
			c-5.6-1.8-11.2-3.7-16.9-5.6c0-1.8-1.4-4.1,0.2-5.4c4.2-3.6,8.7-7,12.8-10.8c-8.2,1.9-16.4,3.2-24.7,4.9
			C706.7,349.4,706.2,346.8,705.8,344.2z"/>
		<linearGradient id="SVGID_20_" gradientUnits="userSpaceOnUse" x1="121.6113" y1="373.7639" x2="92.9819" y2="345.1344">
			<stop  offset="0" style="stop-color:#FF6B00"/>
			<stop  offset="0.6588" style="stop-color:#FFA100"/>
			<stop  offset="1" style="stop-color:#FFB800"/>
		</linearGradient>
		<path class="st19" d="M86.8,370.3c-4.7-10.5,0.8-25.5,12.7-27.8c0.3,2.6,0.5,5.3,0.8,7.9c-7.4,2.5-10.4,13-5.1,18.9
			c4.8,5.4,14.5,6.1,19.5,0.5c4.2-5,4.2-12.5,0.5-17.8c-1.1-0.1-2.1-0.3-3.2-0.4c-0.6,3.2-1.2,6.5-1.7,9.7c-2.4-0.3-4.9-0.8-7.3-1.2
			c0.9-5.8,2-11.6,3.1-17.4c7.1,1.5,14.2,2.6,21.3,3.9c-0.4,2.2-0.7,4.4-1.1,6.6c-1.1,0.1-2.1,0.2-3.2,0.4c3.6,7.4,2,17-4.1,22.7
			C110.1,385.5,91.9,382.4,86.8,370.3z"/>
		<linearGradient id="SVGID_21_" gradientUnits="userSpaceOnUse" x1="125.1439" y1="497.0106" x2="87.8701" y2="459.7369">
			<stop  offset="0" style="stop-color:#FF6B00"/>
			<stop  offset="0.6588" style="stop-color:#FFA100"/>
			<stop  offset="1" style="stop-color:#FFB800"/>
		</linearGradient>
		<path class="st20" d="M84.4,463.3c12.5-2.3,25-4.7,37.6-7c0.6,2.5,1.1,5,1.7,7.5c-8.1,2-16.4,3.2-24.6,4.8
			c5.1,2,10.4,3.6,15.6,5.4c2.1,0.6,1.5,3.3,2,4.9c-4.6,3.8-9,7.9-13.9,11.3c8.3-1.1,16.5-3.1,24.7-4.5c0.7,2.6,1,5.2,1.2,7.9
			c-12.6,2.2-25.1,4.8-37.7,7c-0.2-2.8-1.5-5.6-1.1-8.4c5.2-4.7,11.1-8.8,16-13.8c-6.7-2.4-13.5-4.7-20.3-6.8
			C85.1,468.7,84.7,466,84.4,463.3z"/>
		<linearGradient id="SVGID_22_" gradientUnits="userSpaceOnUse" x1="741.852" y1="492.5055" x2="713.1385" y2="463.792">
			<stop  offset="0" style="stop-color:#FF6B00"/>
			<stop  offset="0.6588" style="stop-color:#FFA100"/>
			<stop  offset="1" style="stop-color:#FFB800"/>
		</linearGradient>
		<path class="st21" d="M715.9,461c8.9-8.3,25.2-5.9,31.2,4.7c6.1,10.7,0.7,26.7-11.8,29.7c-0.4-2.7-0.6-5.4-0.9-8.1
			c6.2-2.2,9.1-9.6,7-15.6c-3.3-8.3-16.4-10.6-21.9-3.2c-3.7,5.1-3.7,12.4,0,17.5c1,0.1,2,0.2,3,0.3c0.6-3.2,1.3-6.4,1.8-9.6
			c2.5,0.1,4.9,0.5,7.3,1.1c-0.8,5.7-2.1,11.4-2.9,17.1c-7.3-0.9-14.5-2.3-21.6-3.8c0.4-2.3,0.9-4.5,1.4-6.7c0.7,0.1,2.3,0.3,3,0.4
			C707.9,476.8,709.6,466.9,715.9,461z"/>
		<linearGradient id="SVGID_23_" gradientUnits="userSpaceOnUse" x1="728.5746" y1="544.7501" x2="700.2075" y2="516.383">
			<stop  offset="0" style="stop-color:#FF6B00"/>
			<stop  offset="0.6588" style="stop-color:#FFA100"/>
			<stop  offset="1" style="stop-color:#FFB800"/>
		</linearGradient>
		<path class="st22" d="M694.4,533.4c-0.9-9.7,5.6-22.7,17-20.9c-0.2,2.5-0.4,5-0.7,7.5c-5.8-0.5-9.2,5.6-9.2,10.7
			c0.4,2.9,4.2,5,6.5,2.8c3.7-3.7,5.4-9.2,9.7-12.3c5.9-4.8,16.1-0.7,17,6.9c1.2,9.4-5.6,20.8-16.1,20c0.3-2.6,0.6-5.1,0.8-7.7
			c5.7,0,9.7-6.8,7.5-11.9c-6.7-4-9.1,5.8-12.7,9.5C709.3,545.7,695.3,542.7,694.4,533.4z"/>
		<g>
			<linearGradient id="SVGID_24_" gradientUnits="userSpaceOnUse" x1="138.4333" y1="552.5995" x2="109.5581" y2="523.7243">
				<stop  offset="0" style="stop-color:#FF6B00"/>
				<stop  offset="0.6588" style="stop-color:#FFA100"/>
				<stop  offset="1" style="stop-color:#FFB800"/>
			</linearGradient>
			<path class="st23" d="M120.6,518.1c15.8-3.8,28.7,15.3,21.8,29.1c-4.9,10.2-19,14.6-28.7,8.7c-8-5.2-11.9-15.9-8.8-25
				C107.2,524.1,113.8,519.4,120.6,518.1z M120.6,526.3c-8.6,2-12.2,13.1-6.4,19.7c5.8,8.2,20.1,4.2,22.1-5.2
				C138.7,532.2,129.4,522.7,120.6,526.3z"/>
		</g>
		<g>
			<linearGradient id="SVGID_25_" gradientUnits="userSpaceOnUse" x1="704.5405" y1="595.5696" x2="671.1719" y2="562.201">
				<stop  offset="0" style="stop-color:#FF6B00"/>
				<stop  offset="0.6588" style="stop-color:#FFA100"/>
				<stop  offset="1" style="stop-color:#FFB800"/>
			</linearGradient>
			<path class="st24" d="M677.4,565.8c9.3-9.2,26.1-4.6,31.4,6.7c5.2,10.6-1.2,24.4-12.1,28.2c-10.7,3.8-23.8-3.4-26.3-14.5
				c-1.1-3.9,0-7.9,0.6-11.8c-1.9-1.2-3.8-2.3-5.8-3.3c1.2-2.4,2.5-4.7,4-7C671.8,565.3,675,569.2,677.4,565.8z M688,568.9
				c-8,1.2-13,11.4-8.8,18.4c2.7,4,7.4,6.6,12.2,6.6c7.3-0.3,12.8-8.1,11.2-15.1C701.2,572.5,694.3,568,688,568.9z"/>
		</g>
		<linearGradient id="SVGID_26_" gradientUnits="userSpaceOnUse" x1="165.7228" y1="605.3913" x2="137.7566" y2="577.425">
			<stop  offset="0" style="stop-color:#FF6B00"/>
			<stop  offset="0.6588" style="stop-color:#FFA100"/>
			<stop  offset="1" style="stop-color:#FFB800"/>
		</linearGradient>
		<path class="st25" d="M148.2,571.3c12.1-2.6,24,8.3,23.6,20.4c0.2,13.4-15.9,23.8-28,18.2c-10.7-4.5-16.3-19-9.6-28.9
			c2,1.7,4,3.5,6,5.3c-2.5,5.6-0.4,12.7,4.9,15.9c8.1,4.7,19.9-2.9,19.1-12.2c-0.7-6.4-7-11.7-13.5-10.9
			C149.8,576.4,149,573.9,148.2,571.3z"/>
		<linearGradient id="SVGID_27_" gradientUnits="userSpaceOnUse" x1="669.6891" y1="643.2416" x2="641.2923" y2="614.8448">
			<stop  offset="0" style="stop-color:#FF6B00"/>
			<stop  offset="0.6588" style="stop-color:#FFA100"/>
			<stop  offset="1" style="stop-color:#FFB800"/>
		</linearGradient>
		<path class="st26" d="M637.6,634.4c-7.6-12,7.5-29.2,20.4-22.9c8.5,4.6,14.8,12.4,22.4,18.3c-1.6,2.2-3.4,4.2-5.4,6.1
			c-6.5-5.5-12.5-11.7-19.4-16.6c-6.9-4.9-16.2,6.1-10.4,12.2c5.7,6.3,12.9,11.1,18.7,17.4c-1.8,1.9-3.4,4-5.6,5.5
			C651.6,647.4,643.2,642.3,637.6,634.4z"/>
		<linearGradient id="SVGID_28_" gradientUnits="userSpaceOnUse" x1="193.8241" y1="619.943" x2="187.6049" y2="613.7239">
			<stop  offset="0" style="stop-color:#FF6B00"/>
			<stop  offset="0.6588" style="stop-color:#FFA100"/>
			<stop  offset="1" style="stop-color:#FFB800"/>
		</linearGradient>
		<path class="st27" d="M190.1,612.5c5.5-0.4,6.6,8.4,0.7,8.9C186.2,620.6,184.7,613.4,190.1,612.5z"/>
		<linearGradient id="SVGID_29_" gradientUnits="userSpaceOnUse" x1="218.1281" y1="667.0212" x2="196.329" y2="645.222">
			<stop  offset="0" style="stop-color:#FF6B00"/>
			<stop  offset="0.6588" style="stop-color:#FFA100"/>
			<stop  offset="1" style="stop-color:#FFB800"/>
		</linearGradient>
		<path class="st28" d="M198.9,649.1c-1.6-7.6,6.8-15.4,14.2-12.5c8.9,3.1,17.6,13.8,12.1,23.2c-2.2-1.2-4.5-2.4-6.7-3.5
			c2.4-5.5-2.2-11.5-7.6-12.6c-2.8,0-5.3,3.4-3.8,6c2.6,4.7,7.2,8.4,8,13.9c1.4,6.9-5.7,13.8-12.6,12.3
			c-9.3-2.1-17.6-12.6-13.1-22.1c2.3,1.1,4.6,2.2,6.9,3.3c-2,5.2,2.3,10.2,7.1,11.6c1.9-0.7,3.6-2,4-4.1
			C205.9,658.9,200.1,655.2,198.9,649.1z"/>
		<g>
			<linearGradient id="SVGID_30_" gradientUnits="userSpaceOnUse" x1="630.3924" y1="679.9673" x2="601.3746" y2="650.9494">
				<stop  offset="0" style="stop-color:#FF6B00"/>
				<stop  offset="0.6588" style="stop-color:#FFA100"/>
				<stop  offset="1" style="stop-color:#FFB800"/>
			</linearGradient>
			<path class="st29" d="M611.9,645.4c2-1.9,4-3.9,6.7-4.8c3.8,13.2,8,26.2,11.7,39.4c-2.3,1.8-4.6,3.7-7,5.4
				c-11.8-7.1-24-13.5-35.8-20.7c2.1-1.9,4.3-3.7,6.7-5.2c2.2,1.4,4.5,2.7,6.7,4.1c4.6-3.4,8.9-7,13.4-10.6
				C613.5,650.5,612.7,648,611.9,645.4z M608.5,668c4.2,2.6,8.4,5.1,12.7,7.3c-1.3-4.8-2.9-9.6-4.3-14.4
				C613.9,662.8,609.8,664.8,608.5,668z"/>
		</g>
		<g>
			<linearGradient id="SVGID_31_" gradientUnits="userSpaceOnUse" x1="267.5172" y1="704.57" x2="238.7541" y2="675.8069">
				<stop  offset="0" style="stop-color:#FF6B00"/>
				<stop  offset="0.6588" style="stop-color:#FFA100"/>
				<stop  offset="1" style="stop-color:#FFB800"/>
			</linearGradient>
			<path class="st30" d="M246.4,670.8c11.6-4.1,25.8,4.7,27.1,17c1.2,10.1-6.1,20.4-16.1,22.4c-9.3,1.7-19.5-3.7-23.2-12.4
				C229.7,687.5,236,674.4,246.4,670.8z M249.1,678.2c-4.9,2-8.3,7.1-8.5,12.4c-0.4,7.9,8.7,14.2,16,11.7c5-1.5,8.4-6.6,9.1-11.7
				C266.5,682.2,256.9,675.2,249.1,678.2z"/>
		</g>
		<g>
			<linearGradient id="SVGID_32_" gradientUnits="userSpaceOnUse" x1="585.0435" y1="713.4799" x2="553.092" y2="681.5284">
				<stop  offset="0" style="stop-color:#FF6B00"/>
				<stop  offset="0.6588" style="stop-color:#FFA100"/>
				<stop  offset="1" style="stop-color:#FFB800"/>
			</linearGradient>
			<path class="st31" d="M564.6,678.4c2.3-1.3,4.6-2.6,6.9-3.7c6.1,11.3,12.5,22.5,18.3,34c-7.2,3.2-13.7,9.2-22,8.9
				c-9.2-0.5-14.5-13.1-8-19.9c-5-2.7-9.6-5.8-14.6-8.4c2.2-2.2,5.1-3.2,7.7-4.8c6.1,1.9,11.5,10.8,18.1,5.8
				C568.7,686.5,566.8,682.4,564.6,678.4z M564.8,702.6c-0.8,3.3,1.8,7.7,5.6,7.4c3.3-0.5,6-2.6,9-3.9c-1.5-3.4-3.5-6.6-5.1-9.9
				C570.6,697.4,566.8,699.2,564.8,702.6z"/>
		</g>
		<linearGradient id="SVGID_33_" gradientUnits="userSpaceOnUse" x1="318.6617" y1="734.4041" x2="293.3075" y2="709.0498">
			<stop  offset="0" style="stop-color:#FF6B00"/>
			<stop  offset="0.6588" style="stop-color:#FFA100"/>
			<stop  offset="1" style="stop-color:#FFB800"/>
		</linearGradient>
		<path class="st32" d="M300.8,710.2c2.3-4.7,3.8-9.8,6-14.6c2.5,0.9,4.9,1.9,7.3,3c-1.7,4.8-3.9,9.3-5.4,14.2
			c1.1,9,3.6,17.8,4.9,26.8c-2.9-0.9-5.7-2.1-8.5-3.3c-0.9-6-2.1-12-3.1-17.9c-4.2,3.3-8.6,6.5-12.9,9.8c-3,2.6-6.6-1-9.7-1.7
			C286.3,720.7,293.8,715.7,300.8,710.2z"/>
		<linearGradient id="SVGID_34_" gradientUnits="userSpaceOnUse" x1="537.1088" y1="735.7462" x2="504.067" y2="702.7043">
			<stop  offset="0" style="stop-color:#FF6B00"/>
			<stop  offset="0.6588" style="stop-color:#FFA100"/>
			<stop  offset="1" style="stop-color:#FFB800"/>
		</linearGradient>
		<path class="st33" d="M501.2,705.6c8.6-3.2,17.4-6.1,26.1-9.1c4.3,12.1,8.4,24.3,12.6,36.5c-8.6,3-17.3,6.1-26,8.9
			c-0.9-2.3-1.7-4.6-2.3-7c6-2.2,12.3-3.8,18.1-6.5c-0.5-2.4-1.5-4.7-2.3-7c-4.6,1.6-9.2,3.1-13.7,4.7c-1-2.3-2-4.7-2.3-7.2
			c4.6-1.6,9.2-2.8,13.7-4.7c-1.1-2.5-1.6-5.3-3-7.7c-6.3,1.4-12.3,4.1-18.5,6C502.6,710.2,501.8,707.9,501.2,705.6z"/>
		<g>
			<linearGradient id="SVGID_35_" gradientUnits="userSpaceOnUse" x1="371.8482" y1="745.0636" x2="342.8692" y2="716.0847">
				<stop  offset="0" style="stop-color:#FF6B00"/>
				<stop  offset="0.6588" style="stop-color:#FFA100"/>
				<stop  offset="1" style="stop-color:#FFB800"/>
			</linearGradient>
			<path class="st34" d="M351.6,711.1c8.1-2,17.4,0.9,22.5,7.7c7,9.4,3.5,24.9-7.2,29.9c-9.4,4.4-22.4,1.2-27.5-8.2
				C333.6,729.7,339.2,713.8,351.6,711.1z M352.7,718.8c-7.8,3.1-10.2,15-4.1,20.8c4.5,4.4,12.5,4.8,17.2,0.4
				c4.8-4.7,5.5-13.3,0.7-18.3C362.9,718.3,357.3,716.9,352.7,718.8z"/>
		</g>
		<g>
			<linearGradient id="SVGID_36_" gradientUnits="userSpaceOnUse" x1="487.8054" y1="748.4227" x2="456.1057" y2="716.723">
				<stop  offset="0" style="stop-color:#FF6B00"/>
				<stop  offset="0.6588" style="stop-color:#FFA100"/>
				<stop  offset="1" style="stop-color:#FFB800"/>
			</linearGradient>
			<path class="st35" d="M454.3,718.6c7.3-6.7,18-6,27.2-7.7c2,12.7,4,25.3,6,38c-9,0.8-18.4,4.7-27.3,1.1
				C448.1,745.3,444.8,727.3,454.3,718.6z M460.2,723.7c-6.2,5.3-3.8,17,3.9,19.6c4.7,1.5,9.7,0.2,14.4-0.6
				c-1.3-7.8-2.5-15.6-3.7-23.4C469.8,720,464.2,720.1,460.2,723.7z"/>
		</g>
		<linearGradient id="SVGID_37_" gradientUnits="userSpaceOnUse" x1="428.3392" y1="758.4647" x2="398.1756" y2="728.3011">
			<stop  offset="0" style="stop-color:#FF6B00"/>
			<stop  offset="0.6588" style="stop-color:#FFA100"/>
			<stop  offset="1" style="stop-color:#FFB800"/>
		</linearGradient>
		<path class="st36" d="M409.5,717c2.6,0,5.3,0,7.9,0c0.2,5.3-0.7,10.6,0,15.8c4.2,7.9,9.5,15.1,13.6,23c-3,0.1-5.9,0.1-8.9,0
			c-3-5.2-6.1-10.3-9.1-15.6c-3.9,4.6-6.8,10.1-10.1,15.1c-2.8,0.1-5.6,0.2-8.3,0c4.3-8.1,10.1-15.2,14.5-23.2
			C409.3,727.1,409.3,722,409.5,717z"/>
	</g>
</g>
</svg>
